<svg width="700" height="330" viewBox="0 0 700 330" fill="none" xmlns="http://www.w3.org/2000/svg">
  <rect width="700" height="330" rx="12" fill="#0D1117"/>
  <rect x="1" y="1" width="698" height="328" rx="12" stroke="#30363D"/>

  <text x="30" y="42" fill="#58A6FF" font-family="Consolas, monospace" font-size="22" font-weight="700">⚔️ Character Stats</text>
  <text x="30" y="75" fill="#8B949E" font-family="Consolas, monospace" font-size="14">DevOps • Backend • Infraestrutura • Automação</text>

  <text x="30" y="118" fill="#C9D1D9" font-family="Consolas, monospace" font-size="15">TypeScript</text>
  <rect x="170" y="104" width="420" height="16" rx="8" fill="#21262D"/>
  <rect x="170" y="104" width="378" height="16" rx="8" fill="#58A6FF"/>
  <text x="610" y="118" fill="#C9D1D9" font-family="Consolas, monospace" font-size="15">Lv.9</text>

  <text x="30" y="150" fill="#C9D1D9" font-family="Consolas, monospace" font-size="15">DevOps</text>
  <rect x="170" y="136" width="420" height="16" rx="8" fill="#21262D"/>
  <rect x="170" y="136" width="378" height="16" rx="8" fill="#58A6FF"/>
  <text x="610" y="150" fill="#C9D1D9" font-family="Consolas, monospace" font-size="15">Lv.9</text>

  <text x="30" y="182" fill="#C9D1D9" font-family="Consolas, monospace" font-size="15">Docker</text>
  <rect x="170" y="168" width="420" height="16" rx="8" fill="#21262D"/>
  <rect x="170" y="168" width="336" height="16" rx="8" fill="#58A6FF"/>
  <text x="610" y="182" fill="#C9D1D9" font-family="Consolas, monospace" font-size="15">Lv.8</text>

  <text x="30" y="214" fill="#C9D1D9" font-family="Consolas, monospace" font-size="15">Linux</text>
  <rect x="170" y="200" width="420" height="16" rx="8" fill="#21262D"/>
  <rect x="170" y="200" width="336" height="16" rx="8" fill="#58A6FF"/>
  <text x="610" y="214" fill="#C9D1D9" font-family="Consolas, monospace" font-size="15">Lv.8</text>

  <text x="30" y="246" fill="#C9D1D9" font-family="Consolas, monospace" font-size="15">SQL</text>
  <rect x="170" y="232" width="420" height="16" rx="8" fill="#21262D"/>
  <rect x="170" y="232" width="336" height="16" rx="8" fill="#58A6FF"/>
  <text x="610" y="246" fill="#C9D1D9" font-family="Consolas, monospace" font-size="15">Lv.8</text>

  <text x="30" y="278" fill="#C9D1D9" font-family="Consolas, monospace" font-size="15">Git</text>
  <rect x="170" y="264" width="420" height="16" rx="8" fill="#21262D"/>
  <rect x="170" y="264" width="294" height="16" rx="8" fill="#58A6FF"/>
  <text x="610" y="278" fill="#C9D1D9" font-family="Consolas, monospace" font-size="15">Lv.7</text>
</svg>
